<svg viewBox="0 0 339 104" fill="none" xmlns="http://www.w3.org/2000/svg" class="h-[6.5rem] w-[21.1875rem] absolute right-[calc(17.80125rem-6.875rem)] top-[23.1875rem]"><rect width="338.181" height="103.207" rx="12" fill="white"></rect><g style="mix-blend-mode:multiply;"><rect x="278" y="36" width="32" height="32" rx="6.4" fill="#45B36B"></rect><path d="M282.856 56.327C282.628 56.5618 282.633 56.9374 282.867 57.166C283.102 57.3946 283.478 57.3896 283.706 57.1548L282.856 56.327ZM304.718 47.2591L298.125 49.1203L303.034 53.8995L304.718 47.2591ZM296.62 55.5767L296.195 55.1628L296.62 55.5767ZM283.706 57.1548L288.675 52.0514L287.825 51.2236L282.856 56.327L283.706 57.1548ZM290.092 52.0514L293.928 55.9906L294.778 55.1628L290.942 51.2236L290.092 52.0514ZM297.045 55.9906L301.419 51.4987L300.568 50.6709L296.195 55.1628L297.045 55.9906ZM293.928 55.9906C294.782 56.8677 296.191 56.8677 297.045 55.9906L296.195 55.1628C295.807 55.5615 295.166 55.5615 294.778 55.1628L293.928 55.9906ZM288.675 52.0514C289.064 51.6527 289.704 51.6527 290.092 52.0514L290.942 51.2236C290.088 50.3465 288.679 50.3465 287.825 51.2236L288.675 52.0514Z" fill="white"></path></g><path d="M21.3985 25.344V24.3298H28.4795V25.344H25.5107V33.7712H24.3674V25.344H21.3985ZM31.9463 33.9187C31.3071 33.9187 30.7462 33.7666 30.2637 33.4623C29.7842 33.1581 29.4093 32.7324 29.1388 32.1853C28.8714 31.6383 28.7377 30.999 28.7377 30.2675C28.7377 29.5299 28.8714 28.8861 29.1388 28.3359C29.4093 27.7858 29.7842 27.3586 30.2637 27.0543C30.7462 26.75 31.3071 26.5979 31.9463 26.5979C32.5856 26.5979 33.145 26.75 33.6244 27.0543C34.1069 27.3586 34.4819 27.7858 34.7493 28.3359C35.0197 28.8861 35.155 29.5299 35.155 30.2675C35.155 30.999 35.0197 31.6383 34.7493 32.1853C34.4819 32.7324 34.1069 33.1581 33.6244 33.4623C33.145 33.7666 32.5856 33.9187 31.9463 33.9187ZM31.9463 32.9414C32.4319 32.9414 32.8315 32.8169 33.145 32.568C33.4584 32.319 33.6905 31.9917 33.8411 31.586C33.9917 31.1803 34.067 30.7408 34.067 30.2675C34.067 29.7942 33.9917 29.3532 33.8411 28.9444C33.6905 28.5357 33.4584 28.2053 33.145 27.9533C32.8315 27.7013 32.4319 27.5753 31.9463 27.5753C31.4607 27.5753 31.0612 27.7013 30.7477 27.9533C30.4342 28.2053 30.2022 28.5357 30.0516 28.9444C29.901 29.3532 29.8257 29.7942 29.8257 30.2675C29.8257 30.7408 29.901 31.1803 30.0516 31.586C30.2022 31.9917 30.4342 32.319 30.7477 32.568C31.0612 32.8169 31.4607 32.9414 31.9463 32.9414ZM39.8953 26.6901V27.6121H36.2256V26.6901H39.8953ZM37.2952 24.9936H38.3832V31.7428C38.3832 32.0501 38.4277 32.2806 38.5169 32.4343C38.6091 32.5849 38.7259 32.6863 38.8672 32.7386C39.0117 32.7877 39.1638 32.8123 39.3236 32.8123C39.4435 32.8123 39.5418 32.8062 39.6187 32.7939C39.6955 32.7785 39.757 32.7662 39.8031 32.757L40.0244 33.7343C39.9506 33.762 39.8476 33.7897 39.7155 33.8173C39.5833 33.848 39.4158 33.8634 39.213 33.8634C38.9056 33.8634 38.6045 33.7973 38.3094 33.6652C38.0174 33.533 37.7746 33.3317 37.581 33.0613C37.3905 32.7908 37.2952 32.4497 37.2952 32.0378V24.9936ZM43.6156 33.9372C43.1669 33.9372 42.7597 33.8527 42.3939 33.6836C42.0282 33.5115 41.7378 33.2641 41.5226 32.9414C41.3075 32.6156 41.1999 32.2222 41.1999 31.7612C41.1999 31.3555 41.2798 31.0267 41.4397 30.7747C41.5995 30.5196 41.8131 30.3198 42.0805 30.1753C42.3478 30.0309 42.6429 29.9233 42.9656 29.8526C43.2914 29.7789 43.6187 29.7205 43.9475 29.6775C44.3778 29.6221 44.7266 29.5806 44.994 29.553C45.2645 29.5222 45.4612 29.4715 45.5841 29.4008C45.7101 29.3302 45.7731 29.2072 45.7731 29.032V28.9952C45.7731 28.5403 45.6487 28.1869 45.3997 27.9348C45.1539 27.6828 44.7804 27.5568 44.2795 27.5568C43.7601 27.5568 43.3528 27.6705 43.0578 27.898C42.7628 28.1254 42.5553 28.3682 42.4354 28.6264L41.4028 28.2575C41.5872 27.8273 41.8331 27.4923 42.1404 27.2525C42.4508 27.0097 42.7889 26.8407 43.1546 26.7454C43.5234 26.6471 43.8861 26.5979 44.2426 26.5979C44.47 26.5979 44.7313 26.6256 45.0263 26.6809C45.3244 26.7331 45.6118 26.8422 45.8884 27.0082C46.1681 27.1742 46.4001 27.4247 46.5845 27.7597C46.7689 28.0947 46.8611 28.5434 46.8611 29.1058V33.7712H45.7731V32.8123H45.7178C45.6441 32.966 45.5211 33.1304 45.349 33.3056C45.1769 33.4808 44.9479 33.6298 44.6621 33.7528C44.3763 33.8757 44.0275 33.9372 43.6156 33.9372ZM43.7816 32.9598C44.2119 32.9598 44.5745 32.8753 44.8696 32.7063C45.1677 32.5372 45.392 32.319 45.5426 32.0516C45.6963 31.7843 45.7731 31.503 45.7731 31.208V30.2122C45.727 30.2675 45.6256 30.3183 45.4689 30.3644C45.3152 30.4074 45.1369 30.4458 44.9341 30.4796C44.7343 30.5103 44.5392 30.538 44.3486 30.5626C44.1611 30.5841 44.009 30.6025 43.8922 30.6179C43.6095 30.6548 43.3452 30.7147 43.0993 30.7977C42.8565 30.8776 42.6598 30.999 42.5092 31.1619C42.3617 31.3217 42.2879 31.5399 42.2879 31.8165C42.2879 32.1946 42.4278 32.4804 42.7074 32.674C42.9902 32.8646 43.3482 32.9598 43.7816 32.9598ZM49.9349 24.3298V33.7712H48.8469V24.3298H49.9349ZM55.7263 33.7712V24.3298H61.4244V25.344H56.8696V28.5342H61.1293V29.5484H56.8696V32.757H61.4981V33.7712H55.7263ZM65.4213 33.9372C64.9726 33.9372 64.5654 33.8527 64.1997 33.6836C63.8339 33.5115 63.5435 33.2641 63.3284 32.9414C63.1132 32.6156 63.0056 32.2222 63.0056 31.7612C63.0056 31.3555 63.0856 31.0267 63.2454 30.7747C63.4052 30.5196 63.6188 30.3198 63.8862 30.1753C64.1536 30.0309 64.4486 29.9233 64.7713 29.8526C65.0971 29.7789 65.4244 29.7205 65.7533 29.6775C66.1835 29.6221 66.5324 29.5806 66.7997 29.553C67.0702 29.5222 67.2669 29.4715 67.3898 29.4008C67.5158 29.3302 67.5789 29.2072 67.5789 29.032V28.9952C67.5789 28.5403 67.4544 28.1869 67.2054 27.9348C66.9596 27.6828 66.5861 27.5568 66.0852 27.5568C65.5658 27.5568 65.1586 27.6705 64.8635 27.898C64.5685 28.1254 64.361 28.3682 64.2411 28.6264L63.2085 28.2575C63.3929 27.8273 63.6388 27.4923 63.9461 27.2525C64.2565 27.0097 64.5946 26.8407 64.9603 26.7454C65.3291 26.6471 65.6918 26.5979 66.0483 26.5979C66.2757 26.5979 66.537 26.6256 66.832 26.6809C67.1301 26.7331 67.4175 26.8422 67.6941 27.0082C67.9738 27.1742 68.2058 27.4247 68.3902 27.7597C68.5746 28.0947 68.6668 28.5434 68.6668 29.1058V33.7712H67.5789V32.8123H67.5235C67.4498 32.966 67.3268 33.1304 67.1547 33.3056C66.9826 33.4808 66.7536 33.6298 66.4678 33.7528C66.182 33.8757 65.8332 33.9372 65.4213 33.9372ZM65.5873 32.9598C66.0176 32.9598 66.3802 32.8753 66.6753 32.7063C66.9734 32.5372 67.1978 32.319 67.3483 32.0516C67.502 31.7843 67.5789 31.503 67.5789 31.208V30.2122C67.5328 30.2675 67.4313 30.3183 67.2746 30.3644C67.1209 30.4074 66.9427 30.4458 66.7398 30.4796C66.54 30.5103 66.3449 30.538 66.1543 30.5626C65.9669 30.5841 65.8147 30.6025 65.6979 30.6179C65.4152 30.6548 65.1509 30.7147 64.905 30.7977C64.6622 30.8776 64.4655 30.999 64.3149 31.1619C64.1674 31.3217 64.0936 31.5399 64.0936 31.8165C64.0936 32.1946 64.2335 32.4804 64.5131 32.674C64.7959 32.8646 65.1539 32.9598 65.5873 32.9598ZM70.6526 33.7712V26.6901H71.7037V27.7597H71.7775C71.9066 27.4093 72.1401 27.125 72.4782 26.9068C72.8163 26.6886 73.1974 26.5795 73.6215 26.5795C73.7014 26.5795 73.8013 26.581 73.9212 26.5841C74.041 26.5872 74.1317 26.5918 74.1932 26.5979V27.7043C74.1563 27.6951 74.0718 27.6813 73.9396 27.6628C73.8105 27.6413 73.6738 27.6306 73.5293 27.6306C73.1851 27.6306 72.8778 27.7028 72.6073 27.8472C72.3399 27.9886 72.1279 28.1853 71.9711 28.4373C71.8174 28.6863 71.7406 28.9706 71.7406 29.2902V33.7712H70.6526ZM76.5708 29.5115V33.7712H75.4828V26.6901H76.5339V27.7965H76.6261C76.7921 27.437 77.0441 27.1481 77.3822 26.9298C77.7203 26.7086 78.1567 26.5979 78.6915 26.5979C79.1709 26.5979 79.5904 26.6963 79.95 26.893C80.3096 27.0866 80.5893 27.3816 80.7891 27.7781C80.9888 28.1715 81.0887 28.6694 81.0887 29.2718V33.7712H80.0007V29.3455C80.0007 28.7892 79.8563 28.3559 79.5674 28.0455C79.2785 27.732 78.882 27.5753 78.378 27.5753C78.0307 27.5753 77.7203 27.6506 77.4467 27.8011C77.1763 27.9517 76.9627 28.1715 76.8059 28.4604C76.6492 28.7493 76.5708 29.0997 76.5708 29.5115ZM83.0768 33.7712V26.6901H84.1648V33.7712H83.0768ZM83.63 25.5099C83.418 25.5099 83.2351 25.4377 83.0814 25.2933C82.9308 25.1488 82.8555 24.9752 82.8555 24.7723C82.8555 24.5695 82.9308 24.3958 83.0814 24.2514C83.2351 24.1069 83.418 24.0347 83.63 24.0347C83.8421 24.0347 84.0234 24.1069 84.174 24.2514C84.3277 24.3958 84.4045 24.5695 84.4045 24.7723C84.4045 24.9752 84.3277 25.1488 84.174 25.2933C84.0234 25.4377 83.8421 25.5099 83.63 25.5099ZM87.2455 29.5115V33.7712H86.1575V26.6901H87.2086V27.7965H87.3008C87.4668 27.437 87.7188 27.1481 88.0569 26.9298C88.3949 26.7086 88.8313 26.5979 89.3661 26.5979C89.8456 26.5979 90.2651 26.6963 90.6247 26.893C90.9843 27.0866 91.2639 27.3816 91.4637 27.7781C91.6635 28.1715 91.7634 28.6694 91.7634 29.2718V33.7712H90.6754V29.3455C90.6754 28.7892 90.5309 28.3559 90.242 28.0455C89.9531 27.732 89.5567 27.5753 89.0526 27.5753C88.7053 27.5753 88.3949 27.6506 88.1214 27.8011C87.8509 27.9517 87.6373 28.1715 87.4806 28.4604C87.3239 28.7493 87.2455 29.0997 87.2455 29.5115ZM96.6097 36.5741C96.0842 36.5741 95.6324 36.5065 95.2544 36.3713C94.8763 36.2391 94.5613 36.064 94.3093 35.8457C94.0603 35.6306 93.8621 35.4001 93.7146 35.1542L94.5813 34.5457C94.6796 34.6748 94.8041 34.8223 94.9547 34.9883C95.1053 35.1573 95.3112 35.3033 95.5725 35.4262C95.8368 35.5522 96.1825 35.6152 96.6097 35.6152C97.1814 35.6152 97.6531 35.4769 98.025 35.2003C98.3969 34.9237 98.5828 34.4904 98.5828 33.9003V32.4619H98.4906C98.4107 32.591 98.297 32.7508 98.1495 32.9414C98.005 33.1289 97.7961 33.2964 97.5225 33.4439C97.2521 33.5883 96.8863 33.6606 96.4253 33.6606C95.8537 33.6606 95.3404 33.5253 94.8856 33.2549C94.4338 32.9844 94.0757 32.591 93.8114 32.0747C93.5502 31.5584 93.4195 30.9314 93.4195 30.1938C93.4195 29.4685 93.5471 28.8369 93.8022 28.299C94.0573 27.7581 94.4122 27.3401 94.8671 27.0451C95.322 26.747 95.8475 26.5979 96.4438 26.5979C96.9048 26.5979 97.2705 26.6747 97.541 26.8284C97.8145 26.979 98.0235 27.1511 98.1679 27.3447C98.3155 27.5353 98.4292 27.692 98.5091 27.815H98.6197V26.6901H99.6708V33.9741C99.6708 34.5826 99.5325 35.0774 99.2559 35.4585C98.9824 35.8427 98.6136 36.1239 98.1495 36.3021C97.6885 36.4835 97.1752 36.5741 96.6097 36.5741ZM96.5728 32.6832C97.0093 32.6832 97.3781 32.5833 97.6793 32.3836C97.9805 32.1838 98.2094 31.8964 98.3662 31.5215C98.5229 31.1465 98.6013 30.6978 98.6013 30.1753C98.6013 29.6652 98.5244 29.2149 98.3708 28.8246C98.2171 28.4343 97.9897 28.1285 97.6885 27.9072C97.3873 27.6859 97.0154 27.5753 96.5728 27.5753C96.1118 27.5753 95.7277 27.692 95.4203 27.9256C95.1161 28.1592 94.8871 28.4727 94.7334 28.8661C94.5828 29.2595 94.5075 29.6959 94.5075 30.1753C94.5075 30.6671 94.5844 31.102 94.738 31.48C94.8948 31.855 95.1253 32.15 95.4295 32.3651C95.7369 32.5772 96.118 32.6832 96.5728 32.6832ZM106.678 28.276L105.701 28.5526C105.639 28.3897 105.549 28.2314 105.429 28.0778C105.312 27.921 105.152 27.7919 104.949 27.6905C104.747 27.5891 104.487 27.5384 104.17 27.5384C103.737 27.5384 103.376 27.6383 103.087 27.838C102.801 28.0347 102.658 28.2852 102.658 28.5895C102.658 28.8599 102.757 29.0735 102.953 29.2303C103.15 29.387 103.457 29.5176 103.875 29.6221L104.926 29.8803C105.559 30.034 106.031 30.2691 106.342 30.5856C106.652 30.8991 106.807 31.3033 106.807 31.7981C106.807 32.2038 106.69 32.5664 106.457 32.8861C106.226 33.2057 105.904 33.4577 105.489 33.6421C105.074 33.8265 104.591 33.9187 104.041 33.9187C103.319 33.9187 102.721 33.762 102.248 33.4485C101.775 33.135 101.475 32.6771 101.349 32.0747L102.382 31.8165C102.48 32.1976 102.666 32.4835 102.939 32.674C103.216 32.8646 103.577 32.9598 104.023 32.9598C104.53 32.9598 104.932 32.8523 105.231 32.6371C105.532 32.4189 105.682 32.1577 105.682 31.8534C105.682 31.6075 105.596 31.4016 105.424 31.2357C105.252 31.0666 104.988 30.9406 104.631 30.8576L103.451 30.581C102.803 30.4274 102.326 30.1892 102.022 29.8665C101.721 29.5407 101.57 29.1335 101.57 28.6448C101.57 28.2453 101.682 27.8918 101.907 27.5845C102.134 27.2771 102.443 27.0359 102.833 26.8607C103.227 26.6855 103.672 26.5979 104.17 26.5979C104.871 26.5979 105.421 26.7516 105.821 27.0589C106.223 27.3663 106.509 27.7719 106.678 28.276Z" fill="#777777"></path><path d="M22.8901 74.2622V52.4524H26.8782L37.1288 67.8127V52.4524H41.1169V74.2622H37.1288L26.8782 58.9331V74.2622H22.8901ZM52.4799 74.6361C51.0467 74.6361 49.7485 74.3868 48.5853 73.8883C47.4221 73.369 46.4874 72.5797 45.7812 71.5204C45.0749 70.4611 44.7011 69.1317 44.6595 67.5323H48.5853C48.606 68.5917 48.9488 69.4848 49.6134 70.2118C50.2989 70.918 51.2544 71.2712 52.4799 71.2712C53.6431 71.2712 54.5362 70.9492 55.1594 70.3053C55.7825 69.6614 56.0941 68.8513 56.0941 67.8751C56.0941 66.7326 55.6786 65.8706 54.8478 65.289C54.0377 64.6867 52.9888 64.3855 51.7009 64.3855H50.0808V61.114H51.7321C52.7914 61.114 53.6742 60.8648 54.3804 60.3663C55.0867 59.8678 55.4398 59.1304 55.4398 58.1541C55.4398 57.3441 55.1697 56.7001 54.6297 56.2224C54.1104 55.7239 53.3834 55.4746 52.4487 55.4746C51.4309 55.4746 50.6312 55.7758 50.0496 56.3782C49.4888 56.9806 49.1772 57.7179 49.1149 58.5903H45.2203C45.3034 56.5755 45.9993 54.9865 47.3078 53.8233C48.6372 52.6602 50.3508 52.0786 52.4487 52.0786C53.9442 52.0786 55.2009 52.3486 56.2187 52.8886C57.2572 53.4079 58.0362 54.1038 58.5554 54.9761C59.0955 55.8485 59.3655 56.8144 59.3655 57.8737C59.3655 59.0992 59.0228 60.1378 58.3373 60.9894C57.6727 61.8203 56.8418 62.3811 55.8448 62.6719C57.0703 62.9211 58.0673 63.5235 58.8359 64.479C59.6044 65.4137 59.9887 66.5976 59.9887 68.0308C59.9887 69.2356 59.6979 70.3364 59.1163 71.3335C58.5347 72.3305 57.6831 73.1302 56.5614 73.7325C55.4605 74.3349 54.1 74.6361 52.4799 74.6361ZM63.3755 74.2622V71.3646C64.7049 70.2637 65.9927 69.1733 67.2389 68.0932C68.506 67.0131 69.6276 65.9433 70.6039 64.884C71.6009 63.8247 72.3902 62.7965 72.9718 61.7995C73.5742 60.7817 73.8753 59.7951 73.8753 58.8396C73.8753 57.9464 73.6261 57.1571 73.1276 56.4717C72.6498 55.7862 71.8502 55.4435 70.7285 55.4435C69.5861 55.4435 68.7241 55.8174 68.1425 56.5651C67.5609 57.3129 67.2701 58.2164 67.2701 59.2758H63.4067C63.4482 57.6764 63.8013 56.347 64.466 55.2877C65.1307 54.2076 66.0134 53.4079 67.1143 52.8886C68.2152 52.3486 69.4511 52.0786 70.822 52.0786C73.0445 52.0786 74.7685 52.6913 75.994 53.9168C77.2403 55.1215 77.8634 56.6898 77.8634 58.6215C77.8634 59.8262 77.583 60.9998 77.0222 62.1422C76.4821 63.2846 75.7655 64.3855 74.8724 65.4448C73.9792 66.5042 73.0133 67.5012 71.9748 68.4359C70.9362 69.3498 69.9288 70.2014 68.9526 70.9907H78.3931V74.2622H63.3755ZM80.0222 77.8764L81.7982 70.1184H85.6616L82.6394 77.8764H80.0222ZM96.6115 74.6361C95.116 74.6361 93.7659 74.3764 92.5612 73.8572C91.3564 73.3171 90.3906 72.559 89.6636 71.5827C88.9574 70.6065 88.6042 69.4744 88.6042 68.1866C88.6042 66.8573 88.947 65.6941 89.6324 64.6971C90.3386 63.7 91.263 62.9834 92.4054 62.5472C91.4084 62.1111 90.6191 61.4879 90.0375 60.6778C89.4559 59.847 89.1651 58.9227 89.1651 57.9049C89.1651 56.8663 89.4455 55.9108 90.0063 55.0385C90.5671 54.1453 91.398 53.4287 92.4988 52.8886C93.6205 52.3486 94.9914 52.0786 96.6115 52.0786C98.2317 52.0786 99.5922 52.3486 100.693 52.8886C101.794 53.4287 102.625 54.1453 103.186 55.0385C103.746 55.9108 104.027 56.8663 104.027 57.9049C104.027 58.9019 103.726 59.8262 103.123 60.6778C102.542 61.5087 101.763 62.1318 100.787 62.5472C101.95 62.9834 102.874 63.7 103.56 64.6971C104.245 65.6941 104.588 66.8573 104.588 68.1866C104.588 69.4744 104.235 70.6065 103.528 71.5827C102.822 72.559 101.856 73.3171 100.631 73.8572C99.426 74.3764 98.0863 74.6361 96.6115 74.6361ZM96.6115 61.3633C97.6916 61.3633 98.5433 61.0829 99.1664 60.5221C99.7895 59.9612 100.101 59.2446 100.101 58.3722C100.101 57.4168 99.7895 56.669 99.1664 56.1289C98.564 55.5889 97.7124 55.3189 96.6115 55.3189C95.4899 55.3189 94.6279 55.5889 94.0255 56.1289C93.4232 56.669 93.122 57.4168 93.122 58.3722C93.122 59.2654 93.4232 59.9924 94.0255 60.5532C94.6487 61.0933 95.5107 61.3633 96.6115 61.3633ZM96.6115 71.3023C97.9409 71.3023 98.9483 70.9804 99.6338 70.3364C100.319 69.6718 100.662 68.8409 100.662 67.8439C100.662 66.743 100.298 65.881 99.5714 65.2579C98.8652 64.6348 97.8786 64.3232 96.6115 64.3232C95.3445 64.3232 94.3371 64.6348 93.5893 65.2579C92.8623 65.881 92.4988 66.743 92.4988 67.8439C92.4988 68.8409 92.8416 69.6718 93.527 70.3364C94.2332 70.9804 95.2614 71.3023 96.6115 71.3023ZM117.453 74.6361C115.438 74.6361 113.714 74.1687 112.28 73.234C110.847 72.2786 109.736 70.9596 108.947 69.2771C108.178 67.5739 107.794 65.6006 107.794 63.3573C107.794 61.1348 108.178 59.1719 108.947 57.4687C109.736 55.7654 110.847 54.4465 112.28 53.5118C113.714 52.5563 115.438 52.0786 117.453 52.0786C119.467 52.0786 121.191 52.5563 122.625 53.5118C124.058 54.4465 125.159 55.7654 125.927 57.4687C126.716 59.1719 127.111 61.1348 127.111 63.3573C127.111 65.6006 126.716 67.5739 125.927 69.2771C125.159 70.9596 124.058 72.2786 122.625 73.234C121.191 74.1687 119.467 74.6361 117.453 74.6361ZM117.453 71.0531C119.093 71.0531 120.433 70.3676 121.472 68.9967C122.51 67.6258 123.03 65.746 123.03 63.3573C123.03 60.9686 122.51 59.0888 121.472 57.7179C120.433 56.347 119.093 55.6616 117.453 55.6616C115.791 55.6616 114.441 56.347 113.402 57.7179C112.384 59.0888 111.875 60.9686 111.875 63.3573C111.875 65.746 112.384 67.6258 113.402 68.9967C114.441 70.3676 115.791 71.0531 117.453 71.0531ZM140.601 74.2622V70.2118H129.852V67.0338L140.071 52.4524H144.589V66.7534H147.455V70.2118H144.589V74.2622H140.601ZM134.12 66.7534H140.85V56.8455L134.12 66.7534ZM148.908 77.8764L150.684 70.1184H154.547L151.525 77.8764H148.908ZM166.744 74.6361C164.729 74.6361 163.005 74.1687 161.572 73.234C160.138 72.2786 159.027 70.9596 158.238 69.2771C157.469 67.5739 157.085 65.6006 157.085 63.3573C157.085 61.1348 157.469 59.1719 158.238 57.4687C159.027 55.7654 160.138 54.4465 161.572 53.5118C163.005 52.5563 164.729 52.0786 166.744 52.0786C168.758 52.0786 170.482 52.5563 171.916 53.5118C173.349 54.4465 174.45 55.7654 175.218 57.4687C176.008 59.1719 176.402 61.1348 176.402 63.3573C176.402 65.6006 176.008 67.5739 175.218 69.2771C174.45 70.9596 173.349 72.2786 171.916 73.234C170.482 74.1687 168.758 74.6361 166.744 74.6361ZM166.744 71.0531C168.385 71.0531 169.724 70.3676 170.763 68.9967C171.801 67.6258 172.321 65.746 172.321 63.3573C172.321 60.9686 171.801 59.0888 170.763 57.7179C169.724 56.347 168.385 55.6616 166.744 55.6616C165.082 55.6616 163.732 56.347 162.693 57.7179C161.675 59.0888 161.167 60.9686 161.167 63.3573C161.167 65.746 161.675 67.6258 162.693 68.9967C163.732 70.3676 165.082 71.0531 166.744 71.0531ZM188.864 74.6361C186.849 74.6361 185.125 74.1687 183.692 73.234C182.258 72.2786 181.147 70.9596 180.358 69.2771C179.589 67.5739 179.205 65.6006 179.205 63.3573C179.205 61.1348 179.589 59.1719 180.358 57.4687C181.147 55.7654 182.258 54.4465 183.692 53.5118C185.125 52.5563 186.849 52.0786 188.864 52.0786C190.878 52.0786 192.603 52.5563 194.036 53.5118C195.469 54.4465 196.57 55.7654 197.338 57.4687C198.128 59.1719 198.522 61.1348 198.522 63.3573C198.522 65.6006 198.128 67.5739 197.338 69.2771C196.57 70.9596 195.469 72.2786 194.036 73.234C192.603 74.1687 190.878 74.6361 188.864 74.6361ZM188.864 71.0531C190.505 71.0531 191.844 70.3676 192.883 68.9967C193.921 67.6258 194.441 65.746 194.441 63.3573C194.441 60.9686 193.921 59.0888 192.883 57.7179C191.844 56.347 190.505 55.6616 188.864 55.6616C187.202 55.6616 185.852 56.347 184.813 57.7179C183.796 59.0888 183.287 60.9686 183.287 63.3573C183.287 65.746 183.796 67.6258 184.813 68.9967C185.852 70.3676 187.202 71.0531 188.864 71.0531ZM210.984 74.6361C208.969 74.6361 207.245 74.1687 205.812 73.234C204.379 72.2786 203.267 70.9596 202.478 69.2771C201.709 67.5739 201.325 65.6006 201.325 63.3573C201.325 61.1348 201.709 59.1719 202.478 57.4687C203.267 55.7654 204.379 54.4465 205.812 53.5118C207.245 52.5563 208.969 52.0786 210.984 52.0786C212.999 52.0786 214.723 52.5563 216.156 53.5118C217.589 54.4465 218.69 55.7654 219.458 57.4687C220.248 59.1719 220.642 61.1348 220.642 63.3573C220.642 65.6006 220.248 67.5739 219.458 69.2771C218.69 70.9596 217.589 72.2786 216.156 73.234C214.723 74.1687 212.999 74.6361 210.984 74.6361ZM210.984 71.0531C212.625 71.0531 213.964 70.3676 215.003 68.9967C216.042 67.6258 216.561 65.746 216.561 63.3573C216.561 60.9686 216.042 59.0888 215.003 57.7179C213.964 56.347 212.625 55.6616 210.984 55.6616C209.322 55.6616 207.972 56.347 206.933 57.7179C205.916 59.0888 205.407 60.9686 205.407 63.3573C205.407 65.746 205.916 67.6258 206.933 68.9967C207.972 70.3676 209.322 71.0531 210.984 71.0531Z" fill="#121212"></path><path d="M20.7715 64.9775H43.2355V66.5353H20.7715V64.9775Z" fill="#121212"></path></svg> 