<svg viewBox="0 0 339 104" fill="none" xmlns="http://www.w3.org/2000/svg" class="h-[6.5rem] w-[21.1875rem] absolute bottom-[7.611875rem] right-[calc(7.73875rem-6.875rem)]"><rect width="338.181" height="103.207" rx="19.473" fill="white"></rect><path d="M258.558 46.5774H260.833V57.8406H258.784L253.433 50.0903V57.8406H251.166V46.5774H253.417L258.558 54.0317V46.5774ZM262.846 50.0436C262.846 49.2335 263.035 48.5611 263.414 48.0262C263.799 47.4914 264.315 47.0915 264.964 46.8267C265.613 46.5566 266.335 46.4216 267.13 46.4216C267.971 46.4216 268.719 46.5307 269.373 46.7488C270.033 46.9669 270.552 47.2992 270.931 47.7458C271.31 48.1924 271.499 48.7584 271.499 49.4438C271.499 49.9995 271.339 50.4902 271.017 50.916C270.695 51.3366 270.17 51.6716 269.443 51.9208C269.859 52.0351 270.243 52.209 270.596 52.4427C270.949 52.6764 271.232 52.975 271.445 53.3384C271.658 53.7019 271.764 54.1381 271.764 54.647C271.764 55.1975 271.642 55.683 271.398 56.1036C271.154 56.5242 270.817 56.8773 270.386 57.1629C269.955 57.4486 269.456 57.6615 268.89 57.8017C268.324 57.9419 267.719 58.012 267.075 58.012C266.172 58.0068 265.401 57.8588 264.762 57.568C264.128 57.272 263.64 56.8514 263.297 56.3061C262.96 55.7609 262.786 55.1118 262.776 54.3588H264.964C265.073 54.9975 265.323 55.4597 265.712 55.7453C266.102 56.0309 266.564 56.1737 267.099 56.1737C267.566 56.1737 267.966 56.1062 268.298 55.9712C268.636 55.8362 268.893 55.6492 269.069 55.4104C269.251 55.1663 269.342 54.8885 269.342 54.5769C269.342 54.255 269.248 53.9772 269.061 53.7435C268.88 53.5098 268.625 53.3281 268.298 53.1982C267.971 53.0632 267.597 52.9905 267.176 52.9801L266.102 52.9412V51.1341L267.067 51.0796C267.472 51.064 267.826 50.9887 268.127 50.8537C268.428 50.7187 268.662 50.5395 268.828 50.3162C268.999 50.0878 269.085 49.8307 269.085 49.5451C269.085 49.2699 268.999 49.031 268.828 48.8285C268.656 48.626 268.42 48.4676 268.119 48.3534C267.818 48.2391 267.472 48.182 267.083 48.182C266.725 48.182 266.395 48.2417 266.094 48.3611C265.793 48.4806 265.546 48.6779 265.354 48.9531C265.162 49.2232 265.05 49.5866 265.019 50.0436H262.846ZM278.192 46.5774H280.428V53.4397H282.165V55.3481H280.428V57.8406H278.239L278.247 55.3481H273.059V53.4787L278.192 46.5774ZM275.162 53.4397H278.247V49.3114L275.162 53.4397ZM283.345 60.0216L284.249 57.9029L283.454 57.8328V55.6285H285.752V57.568L284.186 60.0216H283.345ZM291.965 46.4216C293.305 46.4216 294.362 46.9227 295.135 47.925C295.909 48.922 296.296 50.3578 296.296 52.2324C296.296 54.0966 295.914 55.5272 295.151 56.5242C294.388 57.5161 293.326 58.012 291.965 58.012C290.6 58.012 289.532 57.5161 288.764 56.5242C288.001 55.5324 287.619 54.1044 287.619 52.2402C287.619 50.9939 287.795 49.9372 288.149 49.07C288.502 48.2028 289.003 47.5459 289.652 47.0993C290.301 46.6475 291.072 46.4216 291.965 46.4216ZM291.965 56.1503C292.635 56.1503 293.126 55.8518 293.437 55.2546C293.749 54.6522 293.905 53.6474 293.905 52.2402C293.905 50.8018 293.746 49.771 293.43 49.1479C293.113 48.5247 292.622 48.2132 291.957 48.2132C291.293 48.2132 290.797 48.5273 290.47 49.1556C290.148 49.784 289.987 50.8121 289.987 52.2402C289.987 53.6422 290.148 54.6444 290.47 55.2468C290.792 55.8492 291.29 56.1503 291.965 56.1503ZM301.96 46.4216C303.3 46.4216 304.357 46.9227 305.131 47.925C305.904 48.922 306.291 50.3578 306.291 52.2324C306.291 54.0966 305.91 55.5272 305.146 56.5242C304.383 57.5161 303.321 58.012 301.96 58.012C300.595 58.012 299.528 57.5161 298.759 56.5242C297.996 55.5324 297.614 54.1044 297.614 52.2402C297.614 50.9939 297.791 49.9372 298.144 49.07C298.497 48.2028 298.998 47.5459 299.647 47.0993C300.296 46.6475 301.067 46.4216 301.96 46.4216ZM301.96 56.1503C302.63 56.1503 303.121 55.8518 303.433 55.2546C303.744 54.6522 303.9 53.6474 303.9 52.2402C303.9 50.8018 303.742 49.771 303.425 49.1479C303.108 48.5247 302.617 48.2132 301.953 48.2132C301.288 48.2132 300.792 48.5273 300.465 49.1556C300.143 49.784 299.982 50.8121 299.982 52.2402C299.982 53.6422 300.143 54.6444 300.465 55.2468C300.787 55.8492 301.285 56.1503 301.96 56.1503ZM311.956 46.4216C313.295 46.4216 314.352 46.9227 315.126 47.925C315.899 48.922 316.286 50.3578 316.286 52.2324C316.286 54.0966 315.905 55.5272 315.141 56.5242C314.378 57.5161 313.316 58.012 311.956 58.012C310.59 58.012 309.523 57.5161 308.754 56.5242C307.991 55.5324 307.609 54.1044 307.609 52.2402C307.609 50.9939 307.786 49.9372 308.139 49.07C308.492 48.2028 308.993 47.5459 309.642 47.0993C310.291 46.6475 311.062 46.4216 311.956 46.4216ZM311.956 56.1503C312.625 56.1503 313.116 55.8518 313.428 55.2546C313.739 54.6522 313.895 53.6474 313.895 52.2402C313.895 50.8018 313.737 49.771 313.42 49.1479C313.103 48.5247 312.612 48.2132 311.948 48.2132C311.283 48.2132 310.787 48.5273 310.46 49.1556C310.138 49.784 309.977 50.8121 309.977 52.2402C309.977 53.6422 310.138 54.6444 310.46 55.2468C310.782 55.8492 311.28 56.1503 311.956 56.1503Z" fill="#171721"></path><path d="M249.904 53.0113H262.087V54.1018H249.904V53.0113Z" fill="#171721"></path><circle cx="43.4905" cy="52.3329" r="13.6311" fill="#1ED760"></circle><path d="M49.6861 57.8077C49.4532 58.1772 48.9564 58.2807 48.5682 58.059C45.5097 56.2853 41.6749 55.8862 37.1414 56.8617C36.7067 56.9504 36.272 56.6991 36.1789 56.2853C36.0857 55.8714 36.3496 55.4576 36.7844 55.3689C41.737 54.2899 45.991 54.7481 49.4066 56.7435C49.7947 56.9652 49.9189 57.4382 49.6861 57.8077ZM51.2697 54.4377C50.9747 54.8959 50.3537 55.0289 49.8724 54.7629C46.3791 52.7083 41.0539 52.1171 36.9241 53.3143C36.3807 53.4621 35.8218 53.1813 35.6665 52.6788C35.5113 52.1614 35.8062 51.6293 36.3496 51.4815C41.0694 50.1217 46.938 50.772 50.9592 53.1222C51.4094 53.3882 51.5646 53.9795 51.2697 54.4377ZM51.4094 50.9198C47.2175 48.5549 40.3086 48.3332 36.3031 49.4861C35.6665 49.6782 34.9834 49.3383 34.7816 48.7175C34.5797 48.1115 34.9523 47.4611 35.5889 47.269C40.1844 45.9387 47.823 46.2048 52.6359 48.9244C53.2104 49.2496 53.3967 49.9591 53.0551 50.506C52.7291 51.0676 51.9838 51.2598 51.4094 50.9198Z" fill="white"></path><circle cx="43.49" cy="52.3329" r="22.394" stroke="#F1F5FF" stroke-width="0.6491"></circle><path d="M82.9705 49.8097C81.9043 49.8097 80.9626 49.6296 80.1456 49.2696C79.3286 48.8957 78.6847 48.3695 78.2139 47.691C77.7431 46.9986 77.5008 46.1609 77.4869 45.1777H80.291C80.3187 45.8562 80.5611 46.4309 81.018 46.9017C81.4888 47.3587 82.1327 47.5871 82.9497 47.5871C83.656 47.5871 84.2168 47.421 84.6322 47.0886C85.0476 46.7424 85.2553 46.2855 85.2553 45.7177C85.2553 45.1223 85.0684 44.6584 84.6945 44.3261C84.3345 43.9937 83.8498 43.7237 83.2405 43.516C82.6312 43.3083 81.9804 43.0867 81.288 42.8513C80.1664 42.4636 79.3079 41.9651 78.7124 41.3558C78.1308 40.7465 77.84 39.9364 77.84 38.9256C77.8262 38.067 78.027 37.3331 78.4424 36.7238C78.8717 36.1007 79.4533 35.6229 80.1872 35.2906C80.9211 34.9444 81.7658 34.7713 82.7213 34.7713C83.6906 34.7713 84.5422 34.9444 85.2761 35.2906C86.0239 35.6368 86.6055 36.1214 87.0209 36.7446C87.4502 37.3677 87.6787 38.1085 87.7063 38.9671H84.8607C84.8468 38.4547 84.6461 38.0047 84.2583 37.617C83.8844 37.2154 83.3582 37.0146 82.6797 37.0146C82.0981 37.0008 81.6065 37.1462 81.205 37.4508C80.8172 37.7416 80.6234 38.1709 80.6234 38.7386C80.6234 39.2233 80.7757 39.611 81.0803 39.9018C81.385 40.1787 81.8004 40.4142 82.3266 40.608C82.8528 40.8019 83.4552 41.0096 84.1337 41.2312C84.8538 41.4804 85.5115 41.7712 86.107 42.1035C86.7024 42.4359 87.1801 42.879 87.5402 43.4329C87.9002 43.973 88.0802 44.6723 88.0802 45.5308C88.0802 46.2924 87.8864 46.9986 87.4986 47.6495C87.1109 48.3003 86.5362 48.8265 85.7746 49.2281C85.013 49.6158 84.0783 49.8097 82.9705 49.8097ZM90.3376 54.1301V39.2579H92.7056L92.9964 40.7326C93.3287 40.2757 93.7649 39.8741 94.3049 39.5279C94.8588 39.1817 95.572 39.0086 96.4444 39.0086C97.4137 39.0086 98.2792 39.244 99.0408 39.7149C99.8024 40.1857 100.405 40.8296 100.848 41.6466C101.291 42.4636 101.513 43.3914 101.513 44.4299C101.513 45.4685 101.291 46.3963 100.848 47.2133C100.405 48.0164 99.8024 48.6534 99.0408 49.1242C98.2792 49.5812 97.4137 49.8097 96.4444 49.8097C95.6689 49.8097 94.9904 49.6643 94.4088 49.3735C93.8272 49.0827 93.3564 48.6742 92.9964 48.148V54.1301H90.3376ZM95.8835 47.4833C96.7282 47.4833 97.4275 47.1994 97.9814 46.6317C98.5353 46.0639 98.8123 45.33 98.8123 44.4299C98.8123 43.5298 98.5353 42.789 97.9814 42.2074C97.4275 41.6258 96.7282 41.335 95.8835 41.335C95.025 41.335 94.3188 41.6258 93.7649 42.2074C93.2248 42.7751 92.9548 43.5091 92.9548 44.4091C92.9548 45.3092 93.2248 46.0501 93.7649 46.6317C94.3188 47.1994 95.025 47.4833 95.8835 47.4833ZM108.831 49.8097C107.834 49.8097 106.934 49.5812 106.131 49.1242C105.342 48.6672 104.712 48.0372 104.241 47.234C103.784 46.417 103.555 45.4754 103.555 44.4091C103.555 43.3429 103.791 42.4082 104.261 41.605C104.732 40.788 105.362 40.1511 106.152 39.6941C106.955 39.2371 107.855 39.0086 108.852 39.0086C109.835 39.0086 110.721 39.2371 111.511 39.6941C112.314 40.1511 112.944 40.788 113.401 41.605C113.872 42.4082 114.107 43.3429 114.107 44.4091C114.107 45.4754 113.872 46.417 113.401 47.234C112.944 48.0372 112.314 48.6672 111.511 49.1242C110.707 49.5812 109.814 49.8097 108.831 49.8097ZM108.831 47.5041C109.524 47.5041 110.126 47.2479 110.638 46.7355C111.151 46.2093 111.407 45.4339 111.407 44.4091C111.407 43.3844 111.151 42.6159 110.638 42.1035C110.126 41.5773 109.53 41.3142 108.852 41.3142C108.146 41.3142 107.536 41.5773 107.024 42.1035C106.526 42.6159 106.276 43.3844 106.276 44.4091C106.276 45.4339 106.526 46.2093 107.024 46.7355C107.536 47.2479 108.139 47.5041 108.831 47.5041ZM120.669 49.5604C119.589 49.5604 118.723 49.2973 118.073 48.7711C117.422 48.2449 117.096 47.3102 117.096 45.967V41.4804H115.331V39.2579H117.096L117.408 36.4953H119.755V39.2579H122.538V41.4804H119.755V45.9878C119.755 46.4863 119.859 46.8325 120.067 47.0263C120.288 47.2063 120.662 47.2963 121.188 47.2963H122.476V49.5604H120.669ZM126.254 37.6585C125.77 37.6585 125.368 37.5131 125.05 37.2223C124.745 36.9315 124.593 36.5646 124.593 36.1214C124.593 35.6783 124.745 35.3183 125.05 35.0413C125.368 34.7505 125.77 34.6051 126.254 34.6051C126.739 34.6051 127.134 34.7505 127.438 35.0413C127.757 35.3183 127.916 35.6783 127.916 36.1214C127.916 36.5646 127.757 36.9315 127.438 37.2223C127.134 37.5131 126.739 37.6585 126.254 37.6585ZM124.925 49.5604V39.2579H127.584V49.5604H124.925ZM130.836 49.5604V41.4804H129.424V39.2579H130.836V38.0532C130.836 36.8069 131.148 35.9206 131.771 35.3944C132.408 34.8682 133.267 34.6051 134.347 34.6051H135.489V36.8692H134.762C134.305 36.8692 133.98 36.9592 133.786 37.1392C133.592 37.3192 133.495 37.6239 133.495 38.0532V39.2579H135.718V41.4804H133.495V49.5604H130.836ZM139.111 54.1301L141.5 48.875H140.877L136.868 39.2579H139.755L142.642 46.507L145.654 39.2579H148.479L141.936 54.1301H139.111Z" fill="#121212"></path><path d="M76.8593 64.4982H77.9067L80.0015 68.024H80.09L82.1849 64.4982H83.2323L80.5031 68.9387V72.0514H79.5885V68.9387L76.8593 64.4982ZM85.8711 72.1694C85.3253 72.1694 84.8544 72.0489 84.4586 71.808C84.0652 71.5646 83.7615 71.2253 83.5476 70.7901C83.3362 70.3524 83.2304 69.8435 83.2304 69.2632C83.2304 68.683 83.3362 68.1716 83.5476 67.729C83.7615 67.284 84.059 66.9373 84.4401 66.689C84.8237 66.4382 85.2712 66.3128 85.7826 66.3128C86.0776 66.3128 86.369 66.3619 86.6566 66.4603C86.9443 66.5586 87.2062 66.7185 87.4422 66.9397C87.6782 67.1586 87.8663 67.4487 88.0065 67.8101C88.1466 68.1716 88.2167 68.6166 88.2167 69.1452V69.514H83.85V68.7616H87.3316C87.3316 68.442 87.2676 68.1568 87.1398 67.906C87.0144 67.6552 86.8349 67.4573 86.6013 67.3122C86.3702 67.1672 86.0973 67.0946 85.7826 67.0946C85.4359 67.0946 85.1359 67.1807 84.8827 67.3528C84.6319 67.5225 84.4389 67.7437 84.3037 68.0167C84.1684 68.2896 84.1008 68.5822 84.1008 68.8944V69.396C84.1008 69.8238 84.1746 70.1865 84.3221 70.484C84.4721 70.779 84.6798 71.004 84.9454 71.1589C85.2109 71.3113 85.5195 71.3876 85.8711 71.3876C86.0997 71.3876 86.3063 71.3556 86.4907 71.2917C86.6775 71.2253 86.8386 71.1269 86.9738 70.9966C87.1091 70.8638 87.2135 70.6991 87.2873 70.5024L88.1282 70.7385C88.0397 71.0237 87.8909 71.2745 87.6819 71.4908C87.4729 71.7047 87.2148 71.8719 86.9074 71.9924C86.6001 72.1104 86.2546 72.1694 85.8711 72.1694ZM93.5533 67.6552L92.7715 67.8765C92.7223 67.7462 92.6498 67.6196 92.5539 67.4966C92.4604 67.3712 92.3326 67.268 92.1703 67.1868C92.008 67.1057 91.8003 67.0651 91.547 67.0651C91.2003 67.0651 90.9115 67.145 90.6803 67.3049C90.4517 67.4622 90.3373 67.6626 90.3373 67.906C90.3373 68.1224 90.416 68.2933 90.5734 68.4187C90.7307 68.5441 90.9766 68.6485 91.311 68.7321L92.1519 68.9387C92.6584 69.0616 93.0358 69.2497 93.2841 69.503C93.5324 69.7537 93.6566 70.0771 93.6566 70.4729C93.6566 70.7975 93.5632 71.0876 93.3763 71.3433C93.1919 71.599 92.9337 71.8006 92.6018 71.9481C92.2699 72.0957 91.8839 72.1694 91.4438 72.1694C90.866 72.1694 90.3877 72.044 90.0091 71.7932C89.6305 71.5425 89.3907 71.1761 89.2899 70.6942L90.1161 70.4877C90.1947 70.7925 90.3435 71.0212 90.5623 71.1736C90.7836 71.3261 91.0725 71.4023 91.429 71.4023C91.8347 71.4023 92.1568 71.3163 92.3953 71.1441C92.6362 70.9696 92.7567 70.7606 92.7567 70.5172C92.7567 70.3205 92.6879 70.1557 92.5502 70.023C92.4125 69.8877 92.201 69.7869 91.9158 69.7205L90.9717 69.4993C90.4529 69.3763 90.0718 69.1858 89.8284 68.9276C89.5874 68.667 89.467 68.3412 89.467 67.9503C89.467 67.6306 89.5567 67.3479 89.7362 67.102C89.9181 66.8561 90.1652 66.6631 90.4775 66.523C90.7922 66.3828 91.1487 66.3128 91.547 66.3128C92.1076 66.3128 92.5477 66.4357 92.8674 66.6816C93.1894 66.9274 93.4181 67.252 93.5533 67.6552ZM97.4304 66.3865V67.1241H94.4947V66.3865H97.4304ZM95.3504 65.0293H96.2207V70.4287C96.2207 70.6745 96.2564 70.8589 96.3277 70.9819C96.4015 71.1023 96.4949 71.1835 96.608 71.2253C96.7235 71.2646 96.8452 71.2843 96.9731 71.2843C97.069 71.2843 97.1477 71.2794 97.2091 71.2695C97.2706 71.2572 97.3198 71.2474 97.3567 71.24L97.5337 72.0219C97.4747 72.044 97.3923 72.0662 97.2866 72.0883C97.1809 72.1129 97.0469 72.1252 96.8846 72.1252C96.6387 72.1252 96.3978 72.0723 96.1617 71.9666C95.9281 71.8609 95.7339 71.6998 95.579 71.4834C95.4266 71.2671 95.3504 70.9942 95.3504 70.6647V65.0293ZM101.054 72.1694C100.508 72.1694 100.037 72.0489 99.6414 71.808C99.248 71.5646 98.9444 71.2253 98.7305 70.7901C98.519 70.3524 98.4133 69.8435 98.4133 69.2632C98.4133 68.683 98.519 68.1716 98.7305 67.729C98.9444 67.284 99.2419 66.9373 99.623 66.689C100.007 66.4382 100.454 66.3128 100.965 66.3128C101.26 66.3128 101.552 66.3619 101.84 66.4603C102.127 66.5586 102.389 66.7185 102.625 66.9397C102.861 67.1586 103.049 67.4487 103.189 67.8101C103.329 68.1716 103.4 68.6166 103.4 69.1452V69.514H99.0329V68.7616H102.514C102.514 68.442 102.45 68.1568 102.323 67.906C102.197 67.6552 102.018 67.4573 101.784 67.3122C101.553 67.1672 101.28 67.0946 100.965 67.0946C100.619 67.0946 100.319 67.1807 100.066 67.3528C99.8148 67.5225 99.6217 67.7437 99.4865 68.0167C99.3513 68.2896 99.2837 68.5822 99.2837 68.8944V69.396C99.2837 69.8238 99.3574 70.1865 99.505 70.484C99.6549 70.779 99.8627 71.004 100.128 71.1589C100.394 71.3113 100.702 71.3876 101.054 71.3876C101.283 71.3876 101.489 71.3556 101.674 71.2917C101.86 71.2253 102.021 71.1269 102.157 70.9966C102.292 70.8638 102.396 70.6991 102.47 70.5024L103.311 70.7385C103.223 71.0237 103.074 71.2745 102.865 71.4908C102.656 71.7047 102.398 71.8719 102.09 71.9924C101.783 72.1104 101.438 72.1694 101.054 72.1694ZM104.724 72.0514V66.3865H105.564V67.2422H105.623C105.727 66.9619 105.914 66.7344 106.184 66.5599C106.455 66.3853 106.759 66.298 107.099 66.298C107.163 66.298 107.243 66.2992 107.338 66.3017C107.434 66.3042 107.507 66.3079 107.556 66.3128V67.1979C107.527 67.1905 107.459 67.1795 107.353 67.1647C107.25 67.1475 107.14 67.1389 107.025 67.1389C106.75 67.1389 106.504 67.1967 106.287 67.3122C106.073 67.4253 105.904 67.5827 105.778 67.7843C105.655 67.9835 105.594 68.2109 105.594 68.4666V72.0514H104.724ZM110.554 72.1694C110.082 72.1694 109.666 72.0502 109.304 71.8117C108.943 71.5707 108.66 71.2314 108.456 70.7938C108.252 70.3537 108.15 69.8336 108.15 69.2337C108.15 68.6387 108.252 68.1224 108.456 67.6847C108.66 67.2471 108.944 66.909 109.308 66.6705C109.672 66.432 110.092 66.3128 110.569 66.3128C110.938 66.3128 111.229 66.3742 111.443 66.4972C111.66 66.6177 111.824 66.7553 111.937 66.9102C112.053 67.0627 112.143 67.1881 112.207 67.2864H112.28V64.4982H113.151V72.0514H112.31V71.181H112.207C112.143 71.2843 112.052 71.4146 111.934 71.572C111.816 71.7269 111.647 71.8658 111.428 71.9887C111.21 72.1092 110.918 72.1694 110.554 72.1694ZM110.672 71.3876C111.022 71.3876 111.317 71.2966 111.558 71.1146C111.799 70.9302 111.982 70.6758 112.107 70.3512C112.232 70.0242 112.295 69.6468 112.295 69.219C112.295 68.7961 112.234 68.426 112.111 68.1089C111.988 67.7892 111.806 67.5409 111.565 67.3639C111.324 67.1844 111.026 67.0946 110.672 67.0946C110.304 67.0946 109.996 67.1893 109.75 67.3786C109.507 67.5655 109.324 67.82 109.201 68.1421C109.08 68.4617 109.02 68.8207 109.02 69.219C109.02 69.6222 109.082 69.9885 109.205 70.318C109.33 70.645 109.514 70.9056 109.758 71.0999C110.004 71.2917 110.309 71.3876 110.672 71.3876ZM116.533 72.1842C116.174 72.1842 115.848 72.1166 115.555 71.9813C115.263 71.8436 115.031 71.6457 114.858 71.3876C114.686 71.1269 114.6 70.8122 114.6 70.4434C114.6 70.1189 114.664 69.8558 114.792 69.6542C114.92 69.4501 115.091 69.2903 115.305 69.1747C115.519 69.0592 115.755 68.9731 116.013 68.9165C116.273 68.8575 116.535 68.8108 116.798 68.7764C117.143 68.7321 117.422 68.699 117.636 68.6768C117.852 68.6522 118.009 68.6117 118.108 68.5551C118.208 68.4986 118.259 68.4002 118.259 68.2601V68.2306C118.259 67.8667 118.159 67.5839 117.96 67.3823C117.763 67.1807 117.465 67.0799 117.064 67.0799C116.648 67.0799 116.323 67.1709 116.087 67.3528C115.85 67.5348 115.685 67.729 115.589 67.9355L114.763 67.6405C114.91 67.2963 115.107 67.0283 115.353 66.8365C115.601 66.6422 115.871 66.507 116.164 66.4308C116.459 66.3521 116.749 66.3128 117.034 66.3128C117.216 66.3128 117.425 66.3349 117.661 66.3792C117.9 66.421 118.13 66.5082 118.351 66.641C118.575 66.7738 118.76 66.9742 118.908 67.2422C119.055 67.5102 119.129 67.8691 119.129 68.3191V72.0514H118.259V71.2843H118.215C118.156 71.4072 118.057 71.5388 117.919 71.6789C117.782 71.8191 117.599 71.9383 117.37 72.0367C117.141 72.135 116.862 72.1842 116.533 72.1842ZM116.666 71.4023C117.01 71.4023 117.3 71.3347 117.536 71.1995C117.774 71.0642 117.954 70.8897 118.074 70.6758C118.197 70.4618 118.259 70.2369 118.259 70.0008V69.2042C118.222 69.2485 118.141 69.289 118.015 69.3259C117.892 69.3603 117.75 69.3911 117.588 69.4181C117.428 69.4427 117.272 69.4648 117.119 69.4845C116.969 69.5017 116.847 69.5165 116.754 69.5288C116.528 69.5583 116.316 69.6062 116.12 69.6726C115.925 69.7365 115.768 69.8336 115.648 69.964C115.53 70.0918 115.471 70.2664 115.471 70.4877C115.471 70.7901 115.582 71.0187 115.806 71.1736C116.032 71.3261 116.319 71.4023 116.666 71.4023ZM121.076 74.1757C120.928 74.1757 120.796 74.1634 120.681 74.1389C120.565 74.1167 120.485 74.0946 120.441 74.0725L120.662 73.3054C120.874 73.3594 121.061 73.3791 121.223 73.3644C121.385 73.3496 121.529 73.2771 121.655 73.1468C121.782 73.0189 121.899 72.8111 122.005 72.5235L122.167 72.0809L120.072 66.3865H121.017L122.58 70.9007H122.639L124.203 66.3865H125.147L122.743 72.8775C122.634 73.1701 122.5 73.4123 122.341 73.6041C122.181 73.7983 121.995 73.9422 121.784 74.0356C121.575 74.129 121.339 74.1757 121.076 74.1757ZM127.239 71.0187L127.18 71.4171C127.138 71.6974 127.075 71.9973 126.988 72.3169C126.905 72.6366 126.818 72.9378 126.727 73.2205C126.636 73.5033 126.561 73.7282 126.502 73.8954H125.838C125.87 73.7381 125.912 73.5303 125.963 73.2722C126.015 73.014 126.066 72.7251 126.118 72.4055C126.172 72.0883 126.216 71.7637 126.251 71.4318L126.295 71.0187H127.239ZM134.118 72.1547C133.686 72.1547 133.296 72.0686 132.949 71.8965C132.603 71.7244 132.325 71.4884 132.116 71.1884C131.907 70.8884 131.792 70.5467 131.773 70.1631H132.658C132.692 70.5049 132.847 70.7876 133.123 71.0114C133.4 71.2327 133.732 71.3433 134.118 71.3433C134.428 71.3433 134.704 71.2708 134.945 71.1257C135.188 70.9806 135.379 70.7815 135.516 70.5282C135.656 70.2725 135.726 69.9836 135.726 69.6615C135.726 69.3321 135.654 69.0383 135.509 68.7801C135.366 68.5195 135.17 68.3142 134.919 68.1642C134.668 68.0142 134.381 67.938 134.059 67.9355C133.828 67.9331 133.591 67.9687 133.348 68.0425C133.104 68.1138 132.904 68.206 132.746 68.3191L131.891 68.2158L132.348 64.4982H136.272V65.3096H133.115L132.85 67.5372H132.894C133.049 67.4143 133.243 67.3122 133.477 67.2311C133.71 67.15 133.954 67.1094 134.207 67.1094C134.669 67.1094 135.081 67.22 135.442 67.4413C135.806 67.6601 136.092 67.9601 136.298 68.3412C136.507 68.7223 136.612 69.1575 136.612 69.6468C136.612 70.1287 136.503 70.559 136.287 70.9376C136.073 71.3138 135.778 71.6113 135.402 71.8301C135.026 72.0465 134.598 72.1547 134.118 72.1547ZM138.726 71.0851C138.544 71.0851 138.388 71.02 138.257 70.8897C138.127 70.7594 138.062 70.6032 138.062 70.4213C138.062 70.2393 138.127 70.0832 138.257 69.9529C138.388 69.8226 138.544 69.7574 138.726 69.7574C138.908 69.7574 139.064 69.8226 139.194 69.9529C139.324 70.0832 139.39 70.2393 139.39 70.4213C139.39 70.5418 139.359 70.6524 139.297 70.7532C139.238 70.854 139.158 70.9352 139.058 70.9966C138.959 71.0556 138.849 71.0851 138.726 71.0851ZM138.726 67.2643C138.544 67.2643 138.388 67.1991 138.257 67.0688C138.127 66.9385 138.062 66.7824 138.062 66.6004C138.062 66.4185 138.127 66.2624 138.257 66.1321C138.388 66.0017 138.544 65.9366 138.726 65.9366C138.908 65.9366 139.064 66.0017 139.194 66.1321C139.324 66.2624 139.39 66.4185 139.39 66.6004C139.39 66.7209 139.359 66.8316 139.297 66.9324C139.238 67.0332 139.158 67.1143 139.058 67.1758C138.959 67.2348 138.849 67.2643 138.726 67.2643ZM143.489 72.1547C143.002 72.1547 142.568 72.0711 142.187 71.9039C141.808 71.7367 141.507 71.5043 141.283 71.2068C141.062 70.9069 140.942 70.559 140.922 70.1631H141.851C141.871 70.4065 141.955 70.6167 142.102 70.7938C142.25 70.9683 142.443 71.1036 142.681 71.1995C142.92 71.2954 143.184 71.3433 143.474 71.3433C143.799 71.3433 144.086 71.2867 144.337 71.1736C144.588 71.0605 144.785 70.9032 144.927 70.7016C145.07 70.5 145.141 70.2664 145.141 70.0008C145.141 69.723 145.072 69.4784 144.935 69.2669C144.797 69.053 144.595 68.8858 144.33 68.7653C144.064 68.6449 143.74 68.5846 143.356 68.5846H142.751V67.7732H143.356C143.656 67.7732 143.919 67.7192 144.145 67.611C144.374 67.5028 144.552 67.3503 144.68 67.1537C144.81 66.957 144.876 66.7258 144.876 66.4603C144.876 66.2046 144.819 65.9821 144.706 65.7928C144.593 65.6034 144.433 65.4559 144.226 65.3502C144.022 65.2445 143.781 65.1916 143.504 65.1916C143.243 65.1916 142.997 65.2395 142.766 65.3354C142.537 65.4289 142.35 65.5653 142.205 65.7448C142.06 65.9218 141.982 66.1357 141.969 66.3865H141.084C141.099 65.9907 141.218 65.644 141.442 65.3465C141.666 65.0465 141.958 64.813 142.32 64.6458C142.684 64.4786 143.083 64.395 143.518 64.395C143.986 64.395 144.386 64.4896 144.721 64.679C145.055 64.8658 145.312 65.1129 145.491 65.4203C145.671 65.7276 145.761 66.0595 145.761 66.416C145.761 66.8414 145.649 67.2041 145.425 67.504C145.204 67.804 144.903 68.0117 144.522 68.1273V68.1863C144.999 68.265 145.371 68.4678 145.639 68.7948C145.907 69.1194 146.041 69.5214 146.041 70.0008C146.041 70.4114 145.929 70.7803 145.705 71.1073C145.484 71.4318 145.182 71.6875 144.798 71.8744C144.415 72.0612 143.978 72.1547 143.489 72.1547ZM150.013 72.1547C149.457 72.1547 148.984 72.0035 148.593 71.701C148.202 71.3962 147.903 70.9548 147.697 70.377C147.49 69.7968 147.387 69.096 147.387 68.2748C147.387 67.4585 147.49 66.7615 147.697 66.1837C147.906 65.6034 148.206 65.1609 148.597 64.856C148.99 64.5486 149.462 64.395 150.013 64.395C150.564 64.395 151.035 64.5486 151.426 64.856C151.819 65.1609 152.119 65.6034 152.325 66.1837C152.534 66.7615 152.639 67.4585 152.639 68.2748C152.639 69.096 152.536 69.7968 152.329 70.377C152.123 70.9548 151.824 71.3962 151.433 71.701C151.042 72.0035 150.569 72.1547 150.013 72.1547ZM150.013 71.3433C150.564 71.3433 150.992 71.0778 151.297 70.5467C151.601 70.0156 151.754 69.2583 151.754 68.2748C151.754 67.6208 151.684 67.0639 151.544 66.6041C151.406 66.1443 151.207 65.794 150.946 65.553C150.688 65.3121 150.377 65.1916 150.013 65.1916C149.467 65.1916 149.041 65.4608 148.733 65.9993C148.426 66.5353 148.272 67.2938 148.272 68.2748C148.272 68.9288 148.341 69.4845 148.479 69.9418C148.617 70.3992 148.814 70.7471 149.073 70.9856C149.333 71.224 149.647 71.3433 150.013 71.3433ZM157.094 72.0514V64.4982H159.646C160.239 64.4982 160.723 64.6052 161.099 64.8191C161.478 65.0306 161.758 65.317 161.94 65.6784C162.122 66.0399 162.213 66.4431 162.213 66.8881C162.213 67.3331 162.122 67.7376 161.94 68.1015C161.761 68.4654 161.483 68.7555 161.107 68.9719C160.731 69.1858 160.249 69.2927 159.661 69.2927H157.832V68.4814H159.632C160.037 68.4814 160.363 68.4113 160.609 68.2711C160.855 68.131 161.033 67.9417 161.144 67.7032C161.257 67.4622 161.313 67.1905 161.313 66.8881C161.313 66.5857 161.257 66.3152 161.144 66.0767C161.033 65.8382 160.854 65.6514 160.605 65.5161C160.357 65.3785 160.027 65.3096 159.617 65.3096H158.009V72.0514H157.094ZM163.687 64.4982H164.778L167.345 70.768H167.434L170.001 64.4982H171.092V72.0514H170.237V66.3128H170.163L167.802 72.0514H166.976L164.616 66.3128H164.542V72.0514H163.687V64.4982Z" fill="#777777"></path></svg>