<svg viewBox="0 0 339 104" fill="none" xmlns="http://www.w3.org/2000/svg" class="h-[6.5rem] w-[21.1875rem] absolute right-[calc(6.73875rem-6.875rem)] top-[10.375rem]"><rect width="338.181" height="103.207" rx="12" fill="white"></rect><g style="mix-blend-mode:multiply;"><rect x="259.641" y="38.946" width="57.9113" height="25.982" rx="10.3856" fill="#ECFDF3"></rect><path d="M271.324 55.7235V48.1506M271.324 48.1506L267.537 51.9371M271.324 48.1506L275.11 51.9371" stroke="#12B76A" stroke-width="1.62275" stroke-linecap="round" stroke-linejoin="round"></path><path d="M286.54 46.1073V57.437H284.825V47.8222H284.758L282.048 49.5925V47.955L284.875 46.1073H286.54ZM289.605 57.437V56.1978L293.438 52.2258C293.848 51.7943 294.185 51.4162 294.451 51.0917C294.72 50.7634 294.921 50.4518 295.054 50.1568C295.186 49.8617 295.253 49.5482 295.253 49.2163C295.253 48.8401 295.164 48.5156 294.987 48.2427C294.81 47.966 294.569 47.754 294.263 47.6065C293.957 47.4553 293.612 47.3796 293.228 47.3796C292.822 47.3796 292.468 47.4626 292.166 47.6286C291.864 47.7946 291.631 48.0287 291.469 48.3312C291.307 48.6336 291.225 48.9876 291.225 49.3933H289.594C289.594 48.7037 289.752 48.1007 290.069 47.5843C290.386 47.068 290.822 46.6678 291.375 46.3839C291.928 46.0962 292.557 45.9524 293.261 45.9524C293.973 45.9524 294.6 46.0944 295.142 46.3783C295.688 46.6586 296.114 47.0422 296.42 47.529C296.726 48.0122 296.879 48.558 296.879 49.1665C296.879 49.587 296.8 49.9982 296.641 50.4002C296.487 50.8022 296.215 51.2503 295.828 51.7445C295.441 52.235 294.902 52.8306 294.213 53.5313L291.961 55.888V55.971H297.062V57.437H289.605ZM305.072 55.3127V54.7152C305.072 54.2874 305.161 53.8965 305.338 53.5424C305.519 53.1847 305.78 52.8988 306.123 52.6849C306.47 52.4673 306.889 52.3585 307.379 52.3585C307.881 52.3585 308.301 52.4655 308.641 52.6794C308.98 52.8933 309.236 53.1791 309.41 53.5369C309.587 53.8946 309.675 54.2874 309.675 54.7152V55.3127C309.675 55.7405 309.587 56.1333 309.41 56.491C309.232 56.8451 308.972 57.1309 308.629 57.3485C308.29 57.5624 307.873 57.6694 307.379 57.6694C306.881 57.6694 306.461 57.5624 306.118 57.3485C305.775 57.1309 305.515 56.8451 305.338 56.491C305.161 56.1333 305.072 55.7405 305.072 55.3127ZM306.361 54.7152V55.3127C306.361 55.6299 306.437 55.9175 306.588 56.1757C306.739 56.4339 307.003 56.5629 307.379 56.5629C307.752 56.5629 308.012 56.4339 308.159 56.1757C308.307 55.9175 308.381 55.6299 308.381 55.3127V54.7152C308.381 54.398 308.309 54.1104 308.165 53.8522C308.025 53.594 307.763 53.465 307.379 53.465C307.01 53.465 306.749 53.594 306.594 53.8522C306.439 54.1104 306.361 54.398 306.361 54.7152ZM299.374 48.8291V48.2316C299.374 47.8038 299.463 47.411 299.64 47.0533C299.821 46.6955 300.082 46.4097 300.425 46.1958C300.772 45.9819 301.191 45.8749 301.681 45.8749C302.183 45.8749 302.603 45.9819 302.942 46.1958C303.282 46.4097 303.538 46.6955 303.711 47.0533C303.885 47.411 303.971 47.8038 303.971 48.2316V48.8291C303.971 49.2569 303.883 49.6497 303.706 50.0074C303.533 50.3615 303.274 50.6473 302.931 50.8649C302.592 51.0788 302.175 51.1857 301.681 51.1857C301.18 51.1857 300.757 51.0788 300.414 50.8649C300.075 50.6473 299.817 50.3615 299.64 50.0074C299.463 49.6497 299.374 49.2569 299.374 48.8291ZM300.669 48.2316V48.8291C300.669 49.1462 300.743 49.4339 300.89 49.6921C301.041 49.9502 301.305 50.0793 301.681 50.0793C302.05 50.0793 302.308 49.9502 302.456 49.6921C302.607 49.4339 302.682 49.1462 302.682 48.8291V48.2316C302.682 47.9144 302.611 47.6267 302.467 47.3686C302.323 47.1104 302.061 46.9813 301.681 46.9813C301.312 46.9813 301.051 47.1104 300.896 47.3686C300.744 47.6267 300.669 47.9144 300.669 48.2316ZM299.9 57.437L307.689 46.1073H309.011L301.222 57.437H299.9Z" fill="#027A48"></path></g><path d="M29.5122 27.2802H28.3689C28.3013 26.9513 28.183 26.6624 28.0139 26.4135C27.848 26.1645 27.6451 25.9555 27.4054 25.7865C27.1687 25.6144 26.906 25.4853 26.6171 25.3993C26.3282 25.3132 26.027 25.2702 25.7135 25.2702C25.1418 25.2702 24.624 25.4146 24.1599 25.7035C23.6989 25.9924 23.3316 26.4181 23.0581 26.9805C22.7876 27.543 22.6524 28.2329 22.6524 29.0504C22.6524 29.868 22.7876 30.5579 23.0581 31.1204C23.3316 31.6828 23.6989 32.1085 24.1599 32.3974C24.624 32.6863 25.1418 32.8307 25.7135 32.8307C26.027 32.8307 26.3282 32.7877 26.6171 32.7016C26.906 32.6156 27.1687 32.488 27.4054 32.319C27.6451 32.1469 27.848 31.9364 28.0139 31.6874C28.183 31.4354 28.3013 31.1465 28.3689 30.8207H29.5122C29.4262 31.3032 29.2694 31.7351 29.042 32.1162C28.8145 32.4973 28.5318 32.8215 28.1937 33.0889C27.8557 33.3532 27.4761 33.5545 27.055 33.6928C26.6371 33.8311 26.1899 33.9003 25.7135 33.9003C24.9083 33.9003 24.1922 33.7036 23.5652 33.3102C22.9382 32.9168 22.4449 32.3574 22.0854 31.6321C21.7258 30.9068 21.546 30.0462 21.546 29.0504C21.546 28.0547 21.7258 27.1941 22.0854 26.4688C22.4449 25.7435 22.9382 25.1841 23.5652 24.7907C24.1922 24.3973 24.9083 24.2006 25.7135 24.2006C26.1899 24.2006 26.6371 24.2698 27.055 24.4081C27.4761 24.5464 27.8557 24.7492 28.1937 25.0166C28.5318 25.2809 28.8145 25.6036 29.042 25.9847C29.2694 26.3628 29.4262 26.7946 29.5122 27.2802ZM33.2959 33.9371C32.8472 33.9371 32.44 33.8526 32.0743 33.6836C31.7085 33.5115 31.4181 33.2641 31.203 32.9414C30.9878 32.6156 30.8803 32.2222 30.8803 31.7612C30.8803 31.3555 30.9602 31.0266 31.12 30.7746C31.2798 30.5195 31.4934 30.3198 31.7608 30.1753C32.0282 30.0309 32.3232 29.9233 32.6459 29.8526C32.9717 29.7788 33.299 29.7204 33.6279 29.6774C34.0581 29.6221 34.407 29.5806 34.6744 29.5529C34.9448 29.5222 35.1415 29.4715 35.2644 29.4008C35.3905 29.3301 35.4535 29.2072 35.4535 29.032V28.9951C35.4535 28.5403 35.329 28.1868 35.08 27.9348C34.8342 27.6828 34.4608 27.5568 33.9598 27.5568C33.4404 27.5568 33.0332 27.6705 32.7381 27.8979C32.4431 28.1254 32.2356 28.3682 32.1158 28.6263L31.0831 28.2575C31.2675 27.8272 31.5134 27.4922 31.8207 27.2525C32.1311 27.0097 32.4692 26.8407 32.8349 26.7454C33.2037 26.6471 33.5664 26.5979 33.9229 26.5979C34.1503 26.5979 34.4116 26.6255 34.7066 26.6809C35.0047 26.7331 35.2921 26.8422 35.5687 27.0082C35.8484 27.1741 36.0804 27.4246 36.2648 27.7596C36.4492 28.0946 36.5414 28.5433 36.5414 29.1058V33.7712H35.4535V32.8123H35.3981C35.3244 32.966 35.2014 33.1304 35.0293 33.3056C34.8572 33.4807 34.6283 33.6298 34.3424 33.7527C34.0566 33.8757 33.7078 33.9371 33.2959 33.9371ZM33.4619 32.9598C33.8922 32.9598 34.2548 32.8753 34.5499 32.7062C34.848 32.5372 35.0724 32.319 35.223 32.0516C35.3766 31.7842 35.4535 31.503 35.4535 31.208V30.2122C35.4074 30.2675 35.3059 30.3182 35.1492 30.3643C34.9955 30.4074 34.8173 30.4458 34.6144 30.4796C34.4147 30.5103 34.2195 30.538 34.0289 30.5626C33.8415 30.5841 33.6893 30.6025 33.5725 30.6179C33.2898 30.6548 33.0255 30.7147 32.7796 30.7977C32.5368 30.8776 32.3401 30.999 32.1895 31.1619C32.042 31.3217 31.9682 31.5399 31.9682 31.8165C31.9682 32.1945 32.1081 32.4804 32.3878 32.674C32.6705 32.8645 33.0286 32.9598 33.4619 32.9598ZM38.5272 33.7712V26.6901H39.5783V27.7596H39.6521C39.7812 27.4093 40.0148 27.125 40.3528 26.9068C40.6909 26.6885 41.072 26.5794 41.4961 26.5794C41.576 26.5794 41.6759 26.581 41.7958 26.5841C41.9156 26.5871 42.0063 26.5917 42.0678 26.5979V27.7043C42.0309 27.6951 41.9464 27.6813 41.8142 27.6628C41.6851 27.6413 41.5484 27.6305 41.4039 27.6305C41.0597 27.6305 40.7524 27.7028 40.4819 27.8472C40.2145 27.9886 40.0025 28.1853 39.8457 28.4373C39.6921 28.6863 39.6152 28.9705 39.6152 29.2902V33.7712H38.5272ZM45.8158 33.9187C45.2257 33.9187 44.7048 33.7696 44.253 33.4715C43.8012 33.1703 43.4477 32.7462 43.1926 32.1991C42.9376 31.649 42.81 30.999 42.81 30.2491C42.81 29.5053 42.9376 28.8599 43.1926 28.3128C43.4477 27.7658 43.8027 27.3432 44.2576 27.0451C44.7124 26.7469 45.238 26.5979 45.8342 26.5979C46.2952 26.5979 46.6594 26.6747 46.9268 26.8284C47.1973 26.979 47.4032 27.1511 47.5446 27.3447C47.689 27.5353 47.8012 27.692 47.8811 27.8149H47.9733V24.3297H49.0613V33.7712H48.0102V32.6832H47.8811C47.8012 32.8123 47.6875 32.9752 47.54 33.1719C47.3924 33.3655 47.1819 33.5391 46.9084 33.6928C46.6348 33.8434 46.2706 33.9187 45.8158 33.9187ZM45.9633 32.9414C46.3997 32.9414 46.7685 32.8276 47.0697 32.6002C47.3709 32.3697 47.5999 32.0516 47.7566 31.6459C47.9134 31.2372 47.9917 30.7654 47.9917 30.2306C47.9917 29.702 47.9149 29.2395 47.7612 28.843C47.6076 28.4435 47.3801 28.133 47.0789 27.9118C46.7778 27.6874 46.4059 27.5752 45.9633 27.5752C45.5023 27.5752 45.1181 27.6935 44.8108 27.9302C44.5065 28.1638 44.2775 28.4819 44.1239 28.8845C43.9733 29.284 43.898 29.7327 43.898 30.2306C43.898 30.7347 43.9748 31.1926 44.1285 31.6044C44.2852 32.0132 44.5157 32.339 44.82 32.5818C45.1273 32.8215 45.5084 32.9414 45.9633 32.9414ZM55.0037 33.7712V24.3297H58.3045C58.9622 24.3297 59.5047 24.4434 59.9319 24.6709C60.3591 24.8952 60.6772 25.198 60.8862 25.5791C61.0951 25.9571 61.1996 26.3766 61.1996 26.8376C61.1996 27.2433 61.1274 27.5783 60.983 27.8426C60.8416 28.1069 60.6541 28.3159 60.4205 28.4696C60.19 28.6232 59.9396 28.737 59.6691 28.8107V28.9029C59.958 28.9214 60.2484 29.0228 60.5404 29.2072C60.8324 29.3916 61.0767 29.6559 61.2734 30.0001C61.4701 30.3443 61.5685 30.7654 61.5685 31.2633C61.5685 31.7366 61.4609 32.1623 61.2457 32.5403C61.0306 32.9183 60.691 33.218 60.2269 33.4393C59.7628 33.6605 59.1589 33.7712 58.4152 33.7712H55.0037ZM56.147 32.757H58.4152C59.162 32.757 59.6921 32.6125 60.0056 32.3236C60.3222 32.0316 60.4805 31.6782 60.4805 31.2633C60.4805 30.9437 60.399 30.6486 60.2361 30.3782C60.0732 30.1046 59.8412 29.8864 59.54 29.7235C59.2388 29.5576 58.8823 29.4746 58.4705 29.4746H56.147V32.757ZM56.147 28.4788H58.2676C58.6118 28.4788 58.9223 28.4112 59.1989 28.276C59.4785 28.1407 59.6998 27.9502 59.8627 27.7043C60.0287 27.4584 60.1117 27.1695 60.1117 26.8376C60.1117 26.4227 59.9672 26.0708 59.6783 25.7819C59.3894 25.4899 58.9315 25.3439 58.3045 25.3439H56.147V28.4788ZM65.3833 33.9371C64.9346 33.9371 64.5274 33.8526 64.1616 33.6836C63.7959 33.5115 63.5055 33.2641 63.2903 32.9414C63.0752 32.6156 62.9676 32.2222 62.9676 31.7612C62.9676 31.3555 63.0475 31.0266 63.2073 30.7746C63.3672 30.5195 63.5808 30.3198 63.8481 30.1753C64.1155 30.0309 64.4106 29.9233 64.7333 29.8526C65.0591 29.7788 65.3864 29.7204 65.7152 29.6774C66.1455 29.6221 66.4943 29.5806 66.7617 29.5529C67.0322 29.5222 67.2289 29.4715 67.3518 29.4008C67.4778 29.3301 67.5408 29.2072 67.5408 29.032V28.9951C67.5408 28.5403 67.4163 28.1868 67.1674 27.9348C66.9215 27.6828 66.5481 27.5568 66.0472 27.5568C65.5277 27.5568 65.1205 27.6705 64.8255 27.8979C64.5304 28.1254 64.323 28.3682 64.2031 28.6263L63.1705 28.2575C63.3549 27.8272 63.6007 27.4922 63.9081 27.2525C64.2185 27.0097 64.5566 26.8407 64.9223 26.7454C65.2911 26.6471 65.6538 26.5979 66.0103 26.5979C66.2377 26.5979 66.4989 26.6255 66.794 26.6809C67.0921 26.7331 67.3795 26.8422 67.6561 27.0082C67.9358 27.1741 68.1678 27.4246 68.3522 27.7596C68.5366 28.0946 68.6288 28.5433 68.6288 29.1058V33.7712H67.5408V32.8123H67.4855C67.4117 32.966 67.2888 33.1304 67.1167 33.3056C66.9446 33.4807 66.7156 33.6298 66.4298 33.7527C66.144 33.8757 65.7951 33.9371 65.3833 33.9371ZM65.5493 32.9598C65.9795 32.9598 66.3422 32.8753 66.6372 32.7062C66.9354 32.5372 67.1597 32.319 67.3103 32.0516C67.464 31.7842 67.5408 31.503 67.5408 31.208V30.2122C67.4947 30.2675 67.3933 30.3182 67.2366 30.3643C67.0829 30.4074 66.9046 30.4458 66.7018 30.4796C66.502 30.5103 66.3069 30.538 66.1163 30.5626C65.9288 30.5841 65.7767 30.6025 65.6599 30.6179C65.3772 30.6548 65.1128 30.7147 64.867 30.7977C64.6242 30.8776 64.4275 30.999 64.2769 31.1619C64.1294 31.3217 64.0556 31.5399 64.0556 31.8165C64.0556 32.1945 64.1954 32.4804 64.4751 32.674C64.7579 32.8645 65.1159 32.9598 65.5493 32.9598ZM71.7026 24.3297V33.7712H70.6146V24.3297H71.7026ZM75.779 33.9371C75.3303 33.9371 74.9231 33.8526 74.5574 33.6836C74.1916 33.5115 73.9012 33.2641 73.6861 32.9414C73.4709 32.6156 73.3634 32.2222 73.3634 31.7612C73.3634 31.3555 73.4433 31.0266 73.6031 30.7746C73.7629 30.5195 73.9765 30.3198 74.2439 30.1753C74.5113 30.0309 74.8063 29.9233 75.129 29.8526C75.4548 29.7788 75.7821 29.7204 76.111 29.6774C76.5412 29.6221 76.8901 29.5806 77.1575 29.5529C77.4279 29.5222 77.6246 29.4715 77.7476 29.4008C77.8736 29.3301 77.9366 29.2072 77.9366 29.032V28.9951C77.9366 28.5403 77.8121 28.1868 77.5631 27.9348C77.3173 27.6828 76.9439 27.5568 76.4429 27.5568C75.9235 27.5568 75.5163 27.6705 75.2212 27.8979C74.9262 28.1254 74.7187 28.3682 74.5989 28.6263L73.5662 28.2575C73.7506 27.8272 73.9965 27.4922 74.3038 27.2525C74.6142 27.0097 74.9523 26.8407 75.318 26.7454C75.6868 26.6471 76.0495 26.5979 76.406 26.5979C76.6334 26.5979 76.8947 26.6255 77.1897 26.6809C77.4878 26.7331 77.7752 26.8422 78.0518 27.0082C78.3315 27.1741 78.5635 27.4246 78.7479 27.7596C78.9323 28.0946 79.0245 28.5433 79.0245 29.1058V33.7712H77.9366V32.8123H77.8812C77.8075 32.966 77.6845 33.1304 77.5124 33.3056C77.3403 33.4807 77.1114 33.6298 76.8255 33.7527C76.5397 33.8757 76.1909 33.9371 75.779 33.9371ZM75.945 32.9598C76.3753 32.9598 76.7379 32.8753 77.033 32.7062C77.3311 32.5372 77.5555 32.319 77.7061 32.0516C77.8597 31.7842 77.9366 31.503 77.9366 31.208V30.2122C77.8905 30.2675 77.789 30.3182 77.6323 30.3643C77.4786 30.4074 77.3004 30.4458 77.0975 30.4796C76.8978 30.5103 76.7026 30.538 76.512 30.5626C76.3246 30.5841 76.1724 30.6025 76.0556 30.6179C75.7729 30.6548 75.5086 30.7147 75.2627 30.7977C75.0199 30.8776 74.8232 30.999 74.6726 31.1619C74.5251 31.3217 74.4513 31.5399 74.4513 31.8165C74.4513 32.1945 74.5912 32.4804 74.8709 32.674C75.1536 32.8645 75.5117 32.9598 75.945 32.9598ZM82.0983 29.5115V33.7712H81.0103V26.6901H82.0614V27.7965H82.1536C82.3196 27.4369 82.5716 27.148 82.9097 26.9298C83.2478 26.7085 83.6842 26.5979 84.219 26.5979C84.6984 26.5979 85.1179 26.6962 85.4775 26.8929C85.8371 27.0866 86.1168 27.3816 86.3165 27.7781C86.5163 28.1715 86.6162 28.6693 86.6162 29.2717V33.7712H85.5282V29.3455C85.5282 28.7892 85.3838 28.3559 85.0949 28.0455C84.806 27.732 84.4095 27.5752 83.9055 27.5752C83.5582 27.5752 83.2478 27.6505 82.9742 27.8011C82.7038 27.9517 82.4902 28.1715 82.3334 28.4604C82.1767 28.7493 82.0983 29.0996 82.0983 29.5115ZM91.481 33.9187C90.8171 33.9187 90.2455 33.762 89.766 33.4485C89.2866 33.135 88.9178 32.7032 88.6596 32.153C88.4015 31.6029 88.2724 30.9744 88.2724 30.2675C88.2724 29.5483 88.4045 28.9137 88.6688 28.3635C88.9362 27.8103 89.3081 27.3785 89.7845 27.0681C90.2639 26.7546 90.8233 26.5979 91.4626 26.5979C91.9605 26.5979 92.4092 26.6901 92.8087 26.8745C93.2082 27.0589 93.5356 27.3171 93.7907 27.649C94.0457 27.9809 94.204 28.3682 94.2655 28.8107H93.1775C93.0945 28.488 92.9101 28.2022 92.6243 27.9532C92.3416 27.7012 91.9605 27.5752 91.481 27.5752C91.0569 27.5752 90.685 27.6859 90.3654 27.9071C90.0488 28.1254 89.8014 28.4342 89.6231 28.8338C89.448 29.2302 89.3604 29.6959 89.3604 30.2306C89.3604 30.7777 89.4464 31.2541 89.6185 31.6598C89.7937 32.0654 90.0396 32.3805 90.3561 32.6048C90.6758 32.8292 91.0507 32.9414 91.481 32.9414C91.7638 32.9414 92.0204 32.8922 92.2509 32.7938C92.4814 32.6955 92.6766 32.5541 92.8364 32.3697C92.9962 32.1853 93.1099 31.964 93.1775 31.7059H94.2655C94.204 32.1238 94.0519 32.5003 93.8091 32.8353C93.5694 33.1673 93.2513 33.4316 92.8548 33.6283C92.4614 33.8219 92.0035 33.9187 91.481 33.9187ZM98.8249 33.9187C98.1426 33.9187 97.554 33.7681 97.0592 33.4669C96.5675 33.1626 96.1879 32.7385 95.9205 32.1945C95.6562 31.6475 95.524 31.0113 95.524 30.286C95.524 29.5606 95.6562 28.9214 95.9205 28.3682C96.1879 27.8119 96.5598 27.3785 97.0362 27.0681C97.5156 26.7546 98.075 26.5979 98.7142 26.5979C99.083 26.5979 99.4472 26.6594 99.8068 26.7823C100.166 26.9052 100.494 27.105 100.789 27.3816C101.084 27.6551 101.319 28.0178 101.494 28.4696C101.669 28.9214 101.757 29.4777 101.757 30.1384V30.5994H96.2985V29.659H100.65C100.65 29.2594 100.571 28.9029 100.411 28.5894C100.254 28.276 100.03 28.0285 99.7377 27.8472C99.4488 27.6659 99.1076 27.5752 98.7142 27.5752C98.2809 27.5752 97.9059 27.6828 97.5894 27.8979C97.2759 28.11 97.0346 28.3866 96.8656 28.7277C96.6965 29.0689 96.612 29.4346 96.612 29.8249V30.4519C96.612 30.9867 96.7042 31.44 96.8886 31.8119C97.0761 32.1807 97.3358 32.4619 97.6677 32.6555C97.9997 32.8461 98.3854 32.9414 98.8249 32.9414C99.1107 32.9414 99.3689 32.9014 99.5994 32.8215C99.8329 32.7385 100.034 32.6156 100.203 32.4527C100.372 32.2867 100.503 32.0808 100.595 31.8349L101.646 32.13C101.536 32.4865 101.35 32.8 101.088 33.0704C100.827 33.3378 100.504 33.5468 100.12 33.6974C99.7361 33.8449 99.3043 33.9187 98.8249 33.9187Z" fill="#777777"></path><path d="M22.8901 74.2622V52.4524H26.8782L37.1288 67.8127V52.4524H41.1169V74.2622H37.1288L26.8782 58.9331V74.2622H22.8901ZM52.4799 74.6361C51.0467 74.6361 49.7485 74.3868 48.5853 73.8883C47.4221 73.369 46.4874 72.5797 45.7812 71.5204C45.0749 70.4611 44.7011 69.1317 44.6595 67.5323H48.5853C48.606 68.5917 48.9488 69.4848 49.6134 70.2118C50.2989 70.918 51.2544 71.2712 52.4799 71.2712C53.6431 71.2712 54.5362 70.9492 55.1594 70.3053C55.7825 69.6614 56.0941 68.8513 56.0941 67.8751C56.0941 66.7326 55.6786 65.8706 54.8478 65.289C54.0377 64.6867 52.9888 64.3855 51.7009 64.3855H50.0808V61.114H51.7321C52.7914 61.114 53.6742 60.8648 54.3804 60.3663C55.0867 59.8678 55.4398 59.1304 55.4398 58.1541C55.4398 57.3441 55.1697 56.7001 54.6297 56.2224C54.1104 55.7239 53.3834 55.4746 52.4487 55.4746C51.4309 55.4746 50.6312 55.7758 50.0496 56.3782C49.4888 56.9806 49.1772 57.7179 49.1149 58.5903H45.2203C45.3034 56.5755 45.9993 54.9865 47.3078 53.8233C48.6372 52.6602 50.3508 52.0786 52.4487 52.0786C53.9442 52.0786 55.2009 52.3486 56.2187 52.8886C57.2572 53.4079 58.0362 54.1038 58.5554 54.9761C59.0955 55.8485 59.3655 56.8144 59.3655 57.8737C59.3655 59.0992 59.0228 60.1378 58.3373 60.9894C57.6727 61.8203 56.8418 62.3811 55.8448 62.6719C57.0703 62.9211 58.0673 63.5235 58.8359 64.479C59.6044 65.4137 59.9887 66.5976 59.9887 68.0308C59.9887 69.2356 59.6979 70.3364 59.1163 71.3335C58.5347 72.3305 57.6831 73.1302 56.5614 73.7325C55.4605 74.3349 54.1 74.6361 52.4799 74.6361ZM63.3755 74.2622V71.3646C64.7049 70.2637 65.9927 69.1733 67.2389 68.0932C68.506 67.0131 69.6276 65.9433 70.6039 64.884C71.6009 63.8247 72.3902 62.7965 72.9718 61.7995C73.5742 60.7817 73.8753 59.7951 73.8753 58.8396C73.8753 57.9464 73.6261 57.1571 73.1276 56.4717C72.6498 55.7862 71.8502 55.4435 70.7285 55.4435C69.5861 55.4435 68.7241 55.8174 68.1425 56.5651C67.5609 57.3129 67.2701 58.2164 67.2701 59.2758H63.4067C63.4482 57.6764 63.8013 56.347 64.466 55.2877C65.1307 54.2076 66.0134 53.4079 67.1143 52.8886C68.2152 52.3486 69.4511 52.0786 70.822 52.0786C73.0445 52.0786 74.7685 52.6913 75.994 53.9168C77.2403 55.1215 77.8634 56.6898 77.8634 58.6215C77.8634 59.8262 77.583 60.9998 77.0222 62.1422C76.4821 63.2846 75.7655 64.3855 74.8724 65.4448C73.9792 66.5042 73.0133 67.5012 71.9748 68.4359C70.9362 69.3498 69.9288 70.2014 68.9526 70.9907H78.3931V74.2622H63.3755ZM80.0222 77.8764L81.7982 70.1184H85.6616L82.6394 77.8764H80.0222ZM96.6115 74.6361C95.116 74.6361 93.7659 74.3764 92.5612 73.8572C91.3564 73.3171 90.3906 72.559 89.6636 71.5827C88.9574 70.6065 88.6042 69.4744 88.6042 68.1866C88.6042 66.8573 88.947 65.6941 89.6324 64.6971C90.3386 63.7 91.263 62.9834 92.4054 62.5472C91.4084 62.1111 90.6191 61.4879 90.0375 60.6778C89.4559 59.847 89.1651 58.9227 89.1651 57.9049C89.1651 56.8663 89.4455 55.9108 90.0063 55.0385C90.5671 54.1453 91.398 53.4287 92.4988 52.8886C93.6205 52.3486 94.9914 52.0786 96.6115 52.0786C98.2317 52.0786 99.5922 52.3486 100.693 52.8886C101.794 53.4287 102.625 54.1453 103.186 55.0385C103.746 55.9108 104.027 56.8663 104.027 57.9049C104.027 58.9019 103.726 59.8262 103.123 60.6778C102.542 61.5087 101.763 62.1318 100.787 62.5472C101.95 62.9834 102.874 63.7 103.56 64.6971C104.245 65.6941 104.588 66.8573 104.588 68.1866C104.588 69.4744 104.235 70.6065 103.528 71.5827C102.822 72.559 101.856 73.3171 100.631 73.8572C99.426 74.3764 98.0863 74.6361 96.6115 74.6361ZM96.6115 61.3633C97.6916 61.3633 98.5433 61.0829 99.1664 60.5221C99.7895 59.9612 100.101 59.2446 100.101 58.3722C100.101 57.4168 99.7895 56.669 99.1664 56.1289C98.564 55.5889 97.7124 55.3189 96.6115 55.3189C95.4899 55.3189 94.6279 55.5889 94.0255 56.1289C93.4232 56.669 93.122 57.4168 93.122 58.3722C93.122 59.2654 93.4232 59.9924 94.0255 60.5532C94.6487 61.0933 95.5107 61.3633 96.6115 61.3633ZM96.6115 71.3023C97.9409 71.3023 98.9483 70.9804 99.6338 70.3364C100.319 69.6718 100.662 68.8409 100.662 67.8439C100.662 66.743 100.298 65.881 99.5714 65.2579C98.8652 64.6348 97.8786 64.3232 96.6115 64.3232C95.3445 64.3232 94.3371 64.6348 93.5893 65.2579C92.8623 65.881 92.4988 66.743 92.4988 67.8439C92.4988 68.8409 92.8416 69.6718 93.527 70.3364C94.2332 70.9804 95.2614 71.3023 96.6115 71.3023ZM117.453 74.6361C115.438 74.6361 113.714 74.1687 112.28 73.234C110.847 72.2786 109.736 70.9596 108.947 69.2771C108.178 67.5739 107.794 65.6006 107.794 63.3573C107.794 61.1348 108.178 59.1719 108.947 57.4687C109.736 55.7654 110.847 54.4465 112.28 53.5118C113.714 52.5563 115.438 52.0786 117.453 52.0786C119.467 52.0786 121.191 52.5563 122.625 53.5118C124.058 54.4465 125.159 55.7654 125.927 57.4687C126.716 59.1719 127.111 61.1348 127.111 63.3573C127.111 65.6006 126.716 67.5739 125.927 69.2771C125.159 70.9596 124.058 72.2786 122.625 73.234C121.191 74.1687 119.467 74.6361 117.453 74.6361ZM117.453 71.0531C119.093 71.0531 120.433 70.3676 121.472 68.9967C122.51 67.6258 123.03 65.746 123.03 63.3573C123.03 60.9686 122.51 59.0888 121.472 57.7179C120.433 56.347 119.093 55.6616 117.453 55.6616C115.791 55.6616 114.441 56.347 113.402 57.7179C112.384 59.0888 111.875 60.9686 111.875 63.3573C111.875 65.746 112.384 67.6258 113.402 68.9967C114.441 70.3676 115.791 71.0531 117.453 71.0531ZM140.601 74.2622V70.2118H129.852V67.0338L140.071 52.4524H144.589V66.7534H147.455V70.2118H144.589V74.2622H140.601ZM134.12 66.7534H140.85V56.8455L134.12 66.7534ZM148.908 77.8764L150.684 70.1184H154.547L151.525 77.8764H148.908ZM166.744 74.6361C164.729 74.6361 163.005 74.1687 161.572 73.234C160.138 72.2786 159.027 70.9596 158.238 69.2771C157.469 67.5739 157.085 65.6006 157.085 63.3573C157.085 61.1348 157.469 59.1719 158.238 57.4687C159.027 55.7654 160.138 54.4465 161.572 53.5118C163.005 52.5563 164.729 52.0786 166.744 52.0786C168.758 52.0786 170.482 52.5563 171.916 53.5118C173.349 54.4465 174.45 55.7654 175.218 57.4687C176.008 59.1719 176.402 61.1348 176.402 63.3573C176.402 65.6006 176.008 67.5739 175.218 69.2771C174.45 70.9596 173.349 72.2786 171.916 73.234C170.482 74.1687 168.758 74.6361 166.744 74.6361ZM166.744 71.0531C168.385 71.0531 169.724 70.3676 170.763 68.9967C171.801 67.6258 172.321 65.746 172.321 63.3573C172.321 60.9686 171.801 59.0888 170.763 57.7179C169.724 56.347 168.385 55.6616 166.744 55.6616C165.082 55.6616 163.732 56.347 162.693 57.7179C161.675 59.0888 161.167 60.9686 161.167 63.3573C161.167 65.746 161.675 67.6258 162.693 68.9967C163.732 70.3676 165.082 71.0531 166.744 71.0531ZM188.864 74.6361C186.849 74.6361 185.125 74.1687 183.692 73.234C182.258 72.2786 181.147 70.9596 180.358 69.2771C179.589 67.5739 179.205 65.6006 179.205 63.3573C179.205 61.1348 179.589 59.1719 180.358 57.4687C181.147 55.7654 182.258 54.4465 183.692 53.5118C185.125 52.5563 186.849 52.0786 188.864 52.0786C190.878 52.0786 192.603 52.5563 194.036 53.5118C195.469 54.4465 196.57 55.7654 197.338 57.4687C198.128 59.1719 198.522 61.1348 198.522 63.3573C198.522 65.6006 198.128 67.5739 197.338 69.2771C196.57 70.9596 195.469 72.2786 194.036 73.234C192.603 74.1687 190.878 74.6361 188.864 74.6361ZM188.864 71.0531C190.505 71.0531 191.844 70.3676 192.883 68.9967C193.921 67.6258 194.441 65.746 194.441 63.3573C194.441 60.9686 193.921 59.0888 192.883 57.7179C191.844 56.347 190.505 55.6616 188.864 55.6616C187.202 55.6616 185.852 56.347 184.813 57.7179C183.796 59.0888 183.287 60.9686 183.287 63.3573C183.287 65.746 183.796 67.6258 184.813 68.9967C185.852 70.3676 187.202 71.0531 188.864 71.0531ZM210.984 74.6361C208.969 74.6361 207.245 74.1687 205.812 73.234C204.379 72.2786 203.267 70.9596 202.478 69.2771C201.709 67.5739 201.325 65.6006 201.325 63.3573C201.325 61.1348 201.709 59.1719 202.478 57.4687C203.267 55.7654 204.379 54.4465 205.812 53.5118C207.245 52.5563 208.969 52.0786 210.984 52.0786C212.999 52.0786 214.723 52.5563 216.156 53.5118C217.589 54.4465 218.69 55.7654 219.458 57.4687C220.248 59.1719 220.642 61.1348 220.642 63.3573C220.642 65.6006 220.248 67.5739 219.458 69.2771C218.69 70.9596 217.589 72.2786 216.156 73.234C214.723 74.1687 212.999 74.6361 210.984 74.6361ZM210.984 71.0531C212.625 71.0531 213.964 70.3676 215.003 68.9967C216.042 67.6258 216.561 65.746 216.561 63.3573C216.561 60.9686 216.042 59.0888 215.003 57.7179C213.964 56.347 212.625 55.6616 210.984 55.6616C209.322 55.6616 207.972 56.347 206.933 57.7179C205.916 59.0888 205.407 60.9686 205.407 63.3573C205.407 65.746 205.916 67.6258 206.933 68.9967C207.972 70.3676 209.322 71.0531 210.984 71.0531Z" fill="#121212"></path><path d="M20.7715 64.9775H43.2355V66.5353H20.7715V64.9775Z" fill="#121212"></path></svg>